<svg width="439" height="156" viewBox="0 0 439 156" fill="none" xmlns="http://www.w3.org/2000/svg">
<path d="M68.3539 0C68.6161 0.0246224 68.8752 0.0492447 69.1436 0.0769449C69.8222 1.09262 69.8345 1.39116 69.8222 2.57304C69.8191 3.02547 69.8191 3.02547 69.816 3.48714C69.8068 3.96112 69.8068 3.96112 69.8006 4.44434C69.7975 4.76135 69.7944 5.08144 69.7914 5.41076C69.7852 6.1956 69.7728 6.98352 69.7605 7.77143C70.1492 7.7622 70.5378 7.75297 70.9388 7.74373C72.1295 7.71296 72.8019 7.96841 73.7704 8.69477C73.718 10.0398 73.5422 10.9169 72.6353 11.908C71.8673 12.6036 71.6544 12.6928 70.5717 12.8098C70.3034 12.7729 70.0381 12.7359 69.7605 12.6959C69.8191 13.7424 69.8191 13.7424 70.069 14.8504C70.3805 15.0597 70.3805 15.0597 70.6951 15.2751C71.3028 15.7737 71.3028 15.7737 71.4231 16.5647C71.4107 16.8756 71.3953 17.1864 71.3799 17.5096C71.3707 17.8543 71.3583 18.2021 71.3491 18.5591C71.3336 18.9284 71.3182 19.2978 71.3028 19.6794C71.2349 23.0342 71.4138 25.8381 72.5366 29.0082C72.6446 29.3283 72.7525 29.6453 72.8636 29.9746C74.847 35.2254 78.351 39.8359 83.4621 42.2951C85.1617 42.9629 86.2629 42.9322 87.9594 42.2427C88.854 41.4394 89.1501 40.9839 89.3382 39.799C89.292 38.7895 89.292 38.7895 88.3944 38.2262C88.0551 38.0539 87.7127 37.8815 87.361 37.703C85.5134 36.7458 85.5134 36.7458 85.1833 36.0872C85.171 35.4716 85.171 34.856 85.1833 34.2405C85.7817 34.2312 86.3801 34.2251 86.9785 34.222C87.3086 34.2189 87.6417 34.2128 87.9841 34.2097C88.8848 34.2405 88.8848 34.2405 89.8102 34.5483C89.7824 34.0158 89.7516 33.4833 89.7146 32.9509C89.696 32.6554 89.6775 32.3599 89.659 32.0522C89.5572 31.1442 89.5572 31.1442 89.0267 30.4209C88.1137 28.8051 88.5856 26.7737 88.8848 25.0071C89.4308 23.4374 89.949 22.2463 91.3525 21.3137C93.0089 22.7449 93.5178 25.1825 93.7831 27.2754C93.8633 28.4111 93.7893 29.2329 93.2032 30.2393C93.1014 30.3409 92.9996 30.4425 92.8947 30.5471C92.8731 31.1688 92.8701 31.7905 92.8762 32.4123C92.8793 32.9232 92.8793 32.9232 92.8855 33.4433C92.8886 33.7049 92.8917 33.9696 92.8947 34.2405C93.2032 34.2589 93.5117 34.2774 93.8294 34.2959C94.4278 34.3359 94.4278 34.3359 95.0354 34.3759C95.6307 34.4128 95.6307 34.4128 96.2384 34.4498C97.2131 34.5483 97.2131 34.5483 97.5216 34.856C97.6326 35.5824 97.6326 35.5824 97.5216 36.3949C96.8923 36.9397 96.8923 36.9397 96.0564 37.3952C95.785 37.5491 95.5135 37.703 95.2328 37.863C94.545 38.1893 93.9466 38.4047 93.2032 38.5494C93.1723 38.7956 93.1446 39.0388 93.1137 39.2911C92.7652 41.7534 92.2994 43.1845 90.4672 44.9358C88.2432 46.5332 85.9884 46.447 83.3727 46.0715C78.6842 45.0097 74.9981 40.5746 72.5366 36.7027C71.7223 35.2808 70.908 33.8588 70.069 32.3938C69.9672 35.8471 69.8654 39.3004 69.7605 42.8583C70.1677 42.6552 70.5748 42.452 70.9943 42.2427C72.4101 42.1658 73.5854 42.4674 74.8685 43.0522C75.6212 43.7816 75.6212 43.7816 75.8926 44.7819C75.4916 46.4901 74.4521 47.278 73.1535 48.3983C72.9808 48.5615 72.8111 48.7277 72.6322 48.8969C71.8889 49.5833 71.4354 49.9218 70.4175 50.0326C70.2016 50.0019 69.9826 49.9711 69.7605 49.9372C69.8623 50.2727 69.9641 50.6113 70.069 50.956C70.4792 52.5626 70.4329 54.1384 70.3774 55.785C70.5841 55.8127 70.7938 55.8435 71.0067 55.8743C72.1541 56.1482 73.1628 56.6284 74.2177 57.1362C74.4398 57.2439 74.6619 57.3486 74.8932 57.4563C75.3682 57.684 75.8464 57.9118 76.3245 58.1396C77.33 58.6228 78.3387 59.1029 79.3473 59.58C79.8563 59.8231 80.3652 60.0632 80.8742 60.3063C82.9594 61.2974 85.0507 62.2669 87.1513 63.2302C89.9829 64.5291 92.8084 65.8371 95.6338 67.1544C96.4204 67.5207 97.207 67.8869 97.9935 68.2532C98.1879 68.3455 98.3822 68.4348 98.5796 68.5271C105.52 71.7619 112.472 74.9659 119.431 78.1637C120.452 78.6315 121.47 79.1024 122.491 79.5733C123.719 80.1366 124.943 80.6998 126.171 81.263C126.624 81.4692 127.078 81.6785 127.531 81.8878C128.164 82.1802 128.796 82.4695 129.431 82.7589C129.629 82.8512 129.826 82.9404 130.027 83.0328C131.668 83.7714 133.336 84.3962 135.036 84.9841C135.28 85.098 135.52 85.2118 135.77 85.3319C136.079 86.2552 136.079 86.2552 135.758 86.9293C135.597 87.1693 135.437 87.4125 135.27 87.6587C135.113 87.9018 134.956 88.1419 134.795 88.3912C133.864 89.4346 133.034 89.6193 131.658 89.7024C130.665 89.6808 129.672 89.6623 128.676 89.6408C128.676 91.6721 128.676 93.7035 128.676 95.7964C129.083 95.8979 129.49 95.9995 129.91 96.1042C129.999 97.6277 129.98 98.5972 128.984 99.7975C127.525 100.619 126.008 100.496 124.382 100.484C123.932 100.484 123.932 100.484 123.472 100.484C122.5 100.484 121.532 100.478 120.56 100.472C119.9 100.468 119.237 100.465 118.577 100.465C114.225 100.447 109.885 100.37 105.541 100.105C105.643 100.816 105.745 101.527 105.85 102.26C107.608 102.906 109.228 103.322 111.094 103.491C111.112 104.143 111.125 104.799 111.134 105.451C111.14 105.818 111.146 106.181 111.155 106.556C111.094 107.492 111.094 107.492 110.477 108.108C110.381 108.782 110.381 108.782 110.39 109.573C110.387 109.88 110.384 110.191 110.381 110.508C110.381 111.019 110.381 111.019 110.378 111.539C110.375 111.896 110.372 112.253 110.369 112.623C110.36 113.808 110.356 114.993 110.35 116.181C110.344 116.999 110.338 117.821 110.332 118.64C110.316 120.582 110.307 122.524 110.295 124.463C110.282 126.673 110.27 128.883 110.255 131.093C110.221 135.642 110.193 140.187 110.168 144.733C112.815 144.733 115.461 144.733 118.188 144.733C118.176 140.024 118.16 135.315 118.133 130.606C118.12 128.421 118.111 126.236 118.105 124.047C118.102 121.939 118.089 119.831 118.074 117.72C118.071 116.916 118.068 116.11 118.068 115.303C118.068 114.177 118.059 113.051 118.049 111.924C118.049 111.589 118.052 111.256 118.052 110.911C118.028 109.145 117.963 108.175 116.646 106.876C116.526 105.987 116.526 105.987 116.569 105.088C116.581 104.787 116.59 104.488 116.603 104.177C116.618 103.949 116.63 103.725 116.646 103.491C119.851 103.46 123.019 103.442 126.208 103.799C126.051 105.802 126.051 105.802 125.276 106.572C124.326 108.006 124.505 109.403 124.527 111.087C124.527 111.45 124.527 111.813 124.527 112.186C124.527 113.18 124.533 114.174 124.542 115.168C124.549 116.208 124.549 117.249 124.552 118.286C124.555 120.256 124.564 122.222 124.576 124.189C124.592 126.43 124.598 128.67 124.604 130.911C124.616 135.518 124.638 140.126 124.666 144.733C125.378 144.936 126.091 145.14 126.825 145.349C126.834 146.06 126.84 146.771 126.843 147.485C126.85 147.882 126.853 148.276 126.856 148.685C126.825 149.658 126.825 149.658 126.516 149.966C125.844 149.993 125.172 150.003 124.499 149.999C124.286 149.999 124.074 149.999 123.851 149.999C123.154 149.999 122.46 149.999 121.763 149.996C121.334 149.996 120.906 149.996 120.48 149.993C118.885 149.993 117.294 149.99 115.702 149.984C112.146 149.978 108.589 149.972 104.925 149.966C104.925 138.895 104.925 127.824 104.925 116.418C104.416 116.519 103.907 116.621 103.382 116.725C92.7991 117.166 82.6139 112.01 74.9086 105.125C74.6619 104.901 74.4151 104.673 74.1622 104.442C73.5144 103.848 72.8574 103.272 72.1911 102.703C71.0776 101.746 70.0844 100.702 69.1004 99.6159C68.5699 99.1112 68.5699 99.1112 67.9499 99.2374C67.1232 99.5544 66.7191 99.973 66.1115 100.613C65.8863 100.844 65.6611 101.075 65.4298 101.315C65.1923 101.564 64.9548 101.81 64.7111 102.066C62.4162 104.408 60.0904 106.513 57.4222 108.415C57.2464 108.545 57.0675 108.674 56.8825 108.809C48.8873 114.596 41.0617 116.418 31.2035 116.418C31.2035 127.488 31.2035 138.559 31.2035 149.966C23.9763 149.966 16.7492 149.966 9.30305 149.966C8.8126 148.497 8.68613 146.922 9.36165 145.503C10.0464 144.936 10.5955 144.881 11.4622 144.733C11.4931 139.95 11.5147 135.168 11.527 130.382C11.5332 128.162 11.5424 125.94 11.5548 123.718C11.5671 121.782 11.5764 119.846 11.5795 117.91C11.5795 116.885 11.5856 115.861 11.5949 114.836C11.601 113.691 11.6041 112.546 11.6041 111.401C11.6072 111.062 11.6134 110.724 11.6165 110.373C11.6072 108.455 11.4345 107.449 10.2284 105.953C10.1328 104.934 10.1328 104.934 10.2284 104.106C10.762 103.574 11.4838 103.759 12.2118 103.759C12.7238 103.759 12.7238 103.759 13.2451 103.756C13.606 103.759 13.9638 103.759 14.3371 103.759C14.6918 103.759 15.0465 103.759 15.4136 103.756C15.9287 103.759 15.9287 103.759 16.4531 103.759C16.7677 103.759 17.0823 103.759 17.4062 103.759C18.2483 103.799 18.2483 103.799 19.4821 104.106C19.4821 105.325 19.4821 106.544 19.4821 107.8C19.0749 107.901 18.6678 108.003 18.2483 108.108C18.1465 120.194 18.0447 132.281 17.9398 144.733C20.5864 144.733 23.2329 144.733 25.9597 144.733C25.9597 132.545 25.9597 120.357 25.9597 107.8C25.5525 107.698 25.1454 107.597 24.7259 107.492C24.6241 106.172 24.5223 104.851 24.4174 103.491C25.3428 103.359 25.3428 103.359 26.2867 103.223C27.7672 102.995 29.1646 102.721 30.5865 102.26C30.5865 101.65 30.5865 101.041 30.5865 100.413C30.3244 100.413 30.0622 100.416 29.7907 100.416C27.3076 100.428 24.8246 100.438 22.3415 100.444C21.0645 100.447 19.7906 100.453 18.5136 100.459C17.2828 100.465 16.049 100.468 14.8182 100.472C14.3463 100.472 13.8775 100.475 13.4086 100.478C12.7485 100.484 12.0915 100.484 11.4314 100.484C11.0582 100.484 10.6818 100.487 10.2963 100.487C9.05011 100.395 8.15559 100.136 7.20246 99.3174C6.64415 98.1724 6.76445 97.049 6.8354 95.7964C7.14077 95.7964 7.44614 95.7964 7.76076 95.7964C7.75768 95.5317 7.7546 95.2701 7.75151 94.9962C7.74843 94.6453 7.74534 94.2944 7.74226 93.9312C7.73917 93.5835 7.73609 93.2387 7.72992 92.8817C7.76077 91.7799 7.8934 90.7273 8.06922 89.6408C7.56335 89.65 7.56335 89.65 7.04515 89.6623C6.5948 89.6685 6.14754 89.6747 5.70028 89.6808C5.4751 89.6839 5.25302 89.69 5.02476 89.6962C3.47014 89.7085 2.24865 89.6531 1.09502 88.5482C0.900694 88.2804 0.900695 88.2804 0.706368 88.0065C0.573732 87.828 0.441096 87.6525 0.302291 87.471C0.0493564 86.8708 0.049353 86.8708 0 86.1044C0.589152 84.8333 1.7181 84.6178 2.97969 84.1408C3.57501 83.9007 4.17033 83.6576 4.76257 83.4144C5.09262 83.2821 5.42267 83.1466 5.76197 83.0112C7.79161 82.1648 9.79041 81.2446 11.7892 80.3305C12.2303 80.1304 12.6714 79.9303 13.1094 79.7303C16.6289 78.1298 20.136 76.5048 23.6432 74.8766C25.4723 74.0271 27.3046 73.1838 29.143 72.3467C35.2751 69.5489 41.4041 66.7358 47.5146 63.8889C47.7028 63.7996 47.8909 63.7134 48.0853 63.6242C49.0045 63.1933 49.9237 62.7624 50.8398 62.3254C52.7461 61.4205 54.6554 60.571 56.6172 59.7923C57.6783 59.3707 58.7332 58.9305 59.7881 58.4873C60.3001 58.2781 60.8153 58.078 61.3335 57.8841C64.1528 56.9269 64.1528 56.9269 66.059 54.8186C66.531 53.2059 66.6482 51.6085 66.6759 49.9372C66.4446 49.9557 66.2133 49.9742 65.9727 49.9926C64.9825 49.928 64.7419 49.7433 64.051 49.0601C63.8628 48.8723 63.6716 48.6876 63.4803 48.4968C63.286 48.2998 63.0948 48.1029 62.8974 47.8967C62.703 47.7089 62.5056 47.5181 62.302 47.3211C61.4229 46.4347 60.88 45.8253 60.4945 44.6219C60.5068 43.7816 60.5068 43.7816 61.1237 42.8583C62.9189 42.2397 64.2021 42.1997 66.059 42.5505C66.2626 42.6521 66.4662 42.7537 66.6759 42.8583C66.5742 39.405 66.4724 35.9517 66.3675 32.3938C65.655 33.7142 64.9424 35.0345 64.2083 36.3949C61.2656 40.8516 57.8603 44.9297 52.5394 46.367C50.1581 46.8163 48.4061 46.3639 46.3209 45.182C45.1827 44.3079 44.538 43.5847 44.2974 42.1504C44.2635 41.7872 44.2327 41.424 44.1987 41.0516C43.9304 39.562 43.7946 39.0326 42.5361 38.1524C41.9439 37.86 41.3578 37.6107 40.7409 37.386C40.1672 37.1736 40.1672 37.1736 39.2233 36.7027C38.9365 35.8779 38.9365 35.8779 38.9149 35.1638C39.6706 34.4528 40.0253 34.2436 41.0802 34.2189C41.4103 34.2559 41.7372 34.2959 42.0765 34.3359C42.4097 34.3728 42.7428 34.4098 43.0852 34.4498C43.4646 34.499 43.4646 34.499 43.8502 34.5483C43.8748 34.0035 43.8933 33.4587 43.9088 32.9139C43.918 32.6092 43.9304 32.3076 43.9427 31.9937C43.8347 31.0119 43.6157 30.8918 42.9248 30.2393C42.274 27.7309 42.6965 25.5826 43.9489 23.3635C44.3129 22.7726 44.6892 22.194 45.084 21.6215C46.0094 21.9293 46.0094 21.9293 46.4258 22.628C47.3974 24.8963 48.076 27.1277 47.8601 29.6238C47.5609 30.1409 47.2524 30.6548 46.9347 31.1627C46.762 32.0522 46.762 32.0522 46.725 32.9509C46.6941 33.4033 46.6941 33.4033 46.6633 33.8619C46.6509 34.0897 46.6386 34.3143 46.6263 34.5483C47.0828 34.539 47.0828 34.539 47.5486 34.5267C48.1439 34.5175 48.1439 34.5175 48.7485 34.5082C49.1402 34.5021 49.535 34.4959 49.9391 34.4867C50.9447 34.5483 50.9447 34.5483 51.5616 35.1638C51.5091 35.9764 51.2747 36.3703 50.7719 37.0105C49.7232 37.8692 48.3351 38.8572 46.9347 38.8572C47.6226 40.9501 47.6226 40.9501 49.0939 42.5505C50.3278 43.1661 51.6171 43.0337 52.8972 42.6336C56.3889 41.0763 59.1959 38.0939 61.1237 34.856C61.278 34.6037 61.278 34.6037 61.4322 34.3451C63.1133 31.532 64.1404 28.8297 64.8252 25.6226C64.8807 25.3887 64.9362 25.1579 64.9918 24.9178C65.1583 23.9483 65.1676 23.0342 65.1645 22.0493C65.1645 21.6646 65.1614 21.2799 65.1614 20.8859C65.1583 20.4858 65.1553 20.0888 65.1522 19.6794C65.1522 19.0731 65.1522 19.0731 65.1491 18.4545C65.146 17.4573 65.1398 16.4631 65.1337 15.4659C65.8986 15.312 65.8986 15.312 66.6759 15.1581C66.6759 14.3456 66.6759 13.5331 66.6759 12.6959C66.4662 12.6898 66.2564 12.6836 66.0405 12.6774C64.6771 12.2435 63.8443 11.3448 62.9745 10.2337C62.6845 9.3288 62.6845 9.3288 62.666 8.69477C63.2737 8.06382 63.724 7.78682 64.6 7.70988C65.2941 7.71296 65.985 7.73142 66.6759 7.77143C66.6698 7.41749 66.6636 7.06662 66.6544 6.70344C66.6482 6.23254 66.6451 5.76163 66.6389 5.29073C66.6328 5.0599 66.6266 4.82598 66.6235 4.58899C66.6081 3.06548 66.787 1.82513 67.2929 0.384724C67.6013 0.0769449 67.6013 0.0769449 68.3539 0Z" fill="#2D2F8B"/>
<path d="M149 140C151.08 133.28 153.16 126.48 155.24 119.6C157.36 112.72 159.46 105.92 161.54 99.2C163.9 99.2 166.28 99.2 168.68 99.2C171.12 99.2 173.52 99.2 175.88 99.2C177.96 105.92 180.04 112.72 182.12 119.6C184.24 126.48 186.34 133.28 188.42 140C186.7 140 184.94 140 183.14 140C181.38 140 179.62 140 177.86 140C177.46 138.72 177.08 137.44 176.72 136.16C176.36 134.84 175.98 133.54 175.58 132.26C173.3 132.26 171 132.26 168.68 132.26C166.4 132.26 164.12 132.26 161.84 132.26C161.44 133.54 161.06 134.84 160.7 136.16C160.34 137.44 159.96 138.72 159.56 140C157.84 140 156.08 140 154.28 140C152.52 140 150.76 140 149 140ZM164.48 123.32C165.88 123.32 167.28 123.32 168.68 123.32C170.12 123.32 171.54 123.32 172.94 123.32C172.26 120.96 171.56 118.58 170.84 116.18C170.12 113.78 169.42 111.4 168.74 109.04C168.06 111.4 167.34 113.78 166.58 116.18C165.86 118.58 165.16 120.96 164.48 123.32ZM192.334 140C192.334 133.28 192.334 126.48 192.334 119.6C192.334 112.72 192.334 105.92 192.334 99.2C194.814 99.2 197.314 99.2 199.834 99.2C202.354 99.2 204.854 99.2 207.334 99.2C208.494 103.28 209.634 107.42 210.754 111.62C211.914 115.78 213.054 119.9 214.174 123.98C215.294 119.9 216.414 115.78 217.534 111.62C218.694 107.42 219.834 103.28 220.954 99.2C223.434 99.2 225.914 99.2 228.394 99.2C230.874 99.2 233.334 99.2 235.774 99.2C235.814 105.92 235.854 112.72 235.894 119.6C235.934 126.48 235.974 133.28 236.014 140C234.334 140 232.634 140 230.914 140C229.234 140 227.554 140 225.874 140C225.874 135.44 225.874 130.84 225.874 126.2C225.874 121.52 225.874 116.9 225.874 112.34C224.674 116.9 223.454 121.52 222.214 126.2C220.974 130.84 219.754 135.44 218.554 140C217.074 140 215.554 140 213.994 140C212.474 140 210.954 140 209.434 140C208.234 135.52 207.034 131 205.834 126.44C204.634 121.84 203.434 117.3 202.234 112.82C202.234 117.3 202.234 121.84 202.234 126.44C202.234 131 202.234 135.52 202.234 140C200.634 140 198.994 140 197.314 140C195.634 140 193.974 140 192.334 140ZM243.838 140C243.838 133.28 243.838 126.48 243.838 119.6C243.838 112.72 243.838 105.92 243.838 99.2C246.318 99.2 248.798 99.2 251.278 99.2C253.798 99.2 256.278 99.2 258.718 99.2C261.478 99.2 263.898 99.7 265.978 100.7C268.058 101.66 269.678 103.02 270.838 104.78C271.998 106.5 272.578 108.54 272.578 110.9C272.578 112.58 272.258 114.1 271.617 115.46C270.978 116.82 270.018 117.96 268.738 118.88C270.418 119.88 271.698 121.18 272.578 122.78C273.458 124.34 273.898 126.08 273.898 128C273.898 130.4 273.278 132.5 272.038 134.3C270.838 136.1 269.138 137.5 266.938 138.5C264.778 139.5 262.238 140 259.318 140C256.758 140 254.178 140 251.578 140C248.978 140 246.398 140 243.838 140ZM262.078 111.92C262.078 110.88 261.758 110.04 261.118 109.4C260.478 108.72 259.638 108.38 258.598 108.38C257.878 108.38 257.138 108.38 256.378 108.38C255.658 108.38 254.938 108.38 254.218 108.38C254.218 109.5 254.218 110.66 254.218 111.86C254.218 113.02 254.218 114.18 254.218 115.34C254.938 115.34 255.658 115.34 256.378 115.34C257.138 115.34 257.878 115.34 258.598 115.34C259.638 115.34 260.478 115.04 261.118 114.44C261.758 113.8 262.078 112.96 262.078 111.92ZM263.398 127.04C263.398 125.92 263.018 125.04 262.258 124.4C261.538 123.72 260.538 123.38 259.258 123.38C258.418 123.38 257.578 123.38 256.738 123.38C255.898 123.38 255.058 123.38 254.218 123.38C254.218 124.62 254.218 125.86 254.218 127.1C254.218 128.34 254.218 129.58 254.218 130.82C255.058 130.82 255.898 130.82 256.738 130.82C257.578 130.82 258.418 130.82 259.258 130.82C260.538 130.82 261.538 130.48 262.258 129.8C263.018 129.12 263.398 128.2 263.398 127.04ZM279.88 140C279.88 133.28 279.88 126.48 279.88 119.6C279.88 112.72 279.88 105.92 279.88 99.2C281.64 99.2 283.4 99.2 285.16 99.2C286.92 99.2 288.66 99.2 290.38 99.2C290.38 105.92 290.38 112.72 290.38 119.6C290.38 126.48 290.38 133.28 290.38 140C288.66 140 286.92 140 285.16 140C283.4 140 281.64 140 279.88 140ZM298.505 140C298.505 133.28 298.505 126.48 298.505 119.6C298.505 112.72 298.505 105.92 298.505 99.2C302.545 99.2 306.625 99.2 310.745 99.2C314.865 99.2 318.945 99.2 322.985 99.2C322.985 100.72 322.985 102.28 322.985 103.88C322.985 105.48 322.985 107.04 322.985 108.56C320.665 108.56 318.325 108.56 315.965 108.56C313.645 108.56 311.325 108.56 309.005 108.56C309.005 109.56 309.005 110.56 309.005 111.56C309.005 112.52 309.005 113.5 309.005 114.5C311.125 114.5 313.265 114.5 315.425 114.5C317.585 114.5 319.705 114.5 321.785 114.5C321.785 115.98 321.785 117.48 321.785 119C321.785 120.52 321.785 122.04 321.785 123.56C319.705 123.56 317.585 123.56 315.425 123.56C313.265 123.56 311.125 123.56 309.005 123.56C309.005 124.72 309.005 125.9 309.005 127.1C309.005 128.3 309.005 129.48 309.005 130.64C311.325 130.64 313.645 130.64 315.965 130.64C318.325 130.64 320.665 130.64 322.985 130.64C322.985 132.16 322.985 133.72 322.985 135.32C322.985 136.92 322.985 138.48 322.985 140C318.945 140 314.865 140 310.745 140C306.625 140 302.545 140 298.505 140ZM330.205 140C330.205 133.28 330.205 126.48 330.205 119.6C330.205 112.72 330.205 105.92 330.205 99.2C331.965 99.2 333.725 99.2 335.485 99.2C337.285 99.2 339.045 99.2 340.765 99.2C342.885 103 345.025 106.84 347.185 110.72C349.385 114.6 351.545 118.44 353.665 122.24C353.665 118.44 353.665 114.6 353.665 110.72C353.665 106.84 353.665 103 353.665 99.2C355.385 99.2 357.105 99.2 358.825 99.2C360.545 99.2 362.265 99.2 363.985 99.2C363.985 105.92 363.985 112.72 363.985 119.6C363.985 126.48 363.985 133.28 363.985 140C362.265 140 360.505 140 358.705 140C356.945 140 355.185 140 353.425 140C351.305 136.2 349.145 132.36 346.945 128.48C344.785 124.6 342.645 120.76 340.525 116.96C340.525 120.76 340.525 124.6 340.525 128.48C340.525 132.36 340.525 136.2 340.525 140C338.805 140 337.085 140 335.365 140C333.645 140 331.925 140 330.205 140ZM378.946 140C378.946 134.84 378.946 129.64 378.946 124.4C378.946 119.12 378.946 113.9 378.946 108.74C377.426 108.74 375.886 108.74 374.326 108.74C372.766 108.74 371.226 108.74 369.706 108.74C369.706 107.18 369.706 105.6 369.706 104C369.706 102.36 369.706 100.76 369.706 99.2C374.466 99.2 379.286 99.2 384.166 99.2C389.046 99.2 393.866 99.2 398.626 99.2C398.626 100.76 398.626 102.36 398.626 104C398.626 105.6 398.626 107.18 398.626 108.74C397.146 108.74 395.626 108.74 394.066 108.74C392.506 108.74 390.966 108.74 389.446 108.74C389.446 113.9 389.446 119.12 389.446 124.4C389.446 129.64 389.446 134.84 389.446 140C387.726 140 385.986 140 384.226 140C382.466 140 380.706 140 378.946 140ZM398.609 140C400.689 133.28 402.769 126.48 404.849 119.6C406.969 112.72 409.069 105.92 411.149 99.2C413.509 99.2 415.889 99.2 418.289 99.2C420.729 99.2 423.129 99.2 425.489 99.2C427.569 105.92 429.649 112.72 431.729 119.6C433.849 126.48 435.949 133.28 438.029 140C436.309 140 434.549 140 432.749 140C430.989 140 429.229 140 427.469 140C427.069 138.72 426.689 137.44 426.329 136.16C425.969 134.84 425.589 133.54 425.189 132.26C422.909 132.26 420.609 132.26 418.289 132.26C416.009 132.26 413.729 132.26 411.449 132.26C411.049 133.54 410.669 134.84 410.309 136.16C409.949 137.44 409.569 138.72 409.169 140C407.449 140 405.689 140 403.889 140C402.129 140 400.369 140 398.609 140ZM414.089 123.32C415.489 123.32 416.889 123.32 418.289 123.32C419.729 123.32 421.149 123.32 422.549 123.32C421.869 120.96 421.169 118.58 420.449 116.18C419.729 113.78 419.029 111.4 418.349 109.04C417.669 111.4 416.949 113.78 416.189 116.18C415.469 118.58 414.769 120.96 414.089 123.32Z" fill="#2D2F8B"/>
</svg>
